<?xml version="1.0" encoding="utf-8"?>
<!-- Generator: Adobe Adobe Illustrator 24.2.0, SVG Export Plug-In . SVG Version: 6.00 Build 0)  -->
<svg version="1.1" id="bg" xmlns="http://www.w3.org/2000/svg" xmlns:xlink="http://www.w3.org/1999/xlink" x="0px" y="0px"
	 width="1000px" height="450px" viewBox="0 0 1000 450" style="enable-background:new 0 0 1000 450;" xml:space="preserve">
<style type="text/css">
	.st0{clip-path:url(#SVGID_2_);fill:url(#SVGID_3_);}
	.st1{clip-path:url(#SVGID_2_);}
	.st2{fill:url(#SVGID_4_);}
	.st3{fill:url(#SVGID_5_);}
	.st4{clip-path:url(#SVGID_2_);fill:url(#SVGID_6_);}
	.st5{clip-path:url(#SVGID_2_);fill:url(#SVGID_7_);}
	.st6{fill:url(#SVGID_8_);}
	.st7{clip-path:url(#SVGID_2_);fill:url(#SVGID_9_);}
	.st8{fill:url(#SVGID_10_);}
	.st9{fill:url(#SVGID_11_);}
	.st10{clip-path:url(#SVGID_2_);fill:url(#SVGID_12_);}
	.st11{fill:url(#SVGID_13_);}
	.st12{fill:url(#SVGID_14_);}
</style>
<g>
	<defs>
		<path id="SVGID_1_" d="M0,0v450h1000V0H0L0,0z"/>
	</defs>
	<clipPath id="SVGID_2_">
		<use xlink:href="#SVGID_1_"  style="overflow:visible;"/>
	</clipPath>
	<linearGradient id="SVGID_3_" gradientUnits="userSpaceOnUse" x1="315.7889" y1="-216.78" x2="628.712" y2="533.6807">
		<stop  offset="0" style="stop-color:#1F1E1E"/>
		<stop  offset="1" style="stop-color:#090709"/>
	</linearGradient>
	<path class="st0" d="M0,0v450h1000V0H0L0,0z"/>
	<g class="st1">
		<linearGradient id="SVGID_4_" gradientUnits="userSpaceOnUse" x1="453.4126" y1="280.1384" x2="493.0125" y2="460.1383">
			<stop  offset="0" style="stop-color:#1F1E1E"/>
			<stop  offset="1" style="stop-color:#090709"/>
		</linearGradient>
		<path class="st2" d="M777.1,475.9c-19-8.2-25.3-31.5-28.9-51.9c-3.5-20.4-8.5-43.7-26.7-53.6c-19.3-10.5-43.5-0.3-65-4.5
			c-19.9-3.9-35.1-19.4-50.6-32.4c-15.5-13.1-35.5-24.9-55-19.3c-20.8,5.9-31.4,28.4-39.5,48.4c-8.1,20.1-18.7,42.5-39.5,48.3
			c-18.9,5.2-38.3-5.7-53.7-17.9c-15.4-12.2-30.6-26.6-49.9-29.8c-22.2-3.7-44.3,8.8-59.7,25.2c-15.4,16.4-25.8,36.7-39,55
			c-13.1,18.3-30.3,35.3-52.2,40.3L777.1,475.9z"/>
	</g>
	<g class="st1">
		<linearGradient id="SVGID_5_" gradientUnits="userSpaceOnUse" x1="147.8549" y1="300.725" x2="24.4264" y2="345.0822">
			<stop  offset="0" style="stop-color:#1F1E1E"/>
			<stop  offset="1" style="stop-color:#090709"/>
		</linearGradient>
		<path class="st3" d="M-32.5,428.7c15.2-12,35.8-13.7,55.1-14.1c19.3-0.3,39.6,0.1,56.8-8.7c19.7-10,32.1-30.8,37.4-52.3
			c2.3-9.4,3.5-19,4.6-28.6c1.1-9.1,2.2-18.2,3.3-27.3c1.1-8.8,2-18.4-2.6-26c-4.9-8.3-14.9-11.8-24-14.8c-15.3-5-32.6-9.9-46.8-2.2
			c-9,4.9-14.8,13.9-21.4,21.8C8.6,302-24.9,317-58.3,316.1L-32.5,428.7z"/>
	</g>
	<linearGradient id="SVGID_6_" gradientUnits="userSpaceOnUse" x1="139.5504" y1="323.1862" x2="-83.1542" y2="344.7816">
		<stop  offset="0" style="stop-color:#1F1E1E"/>
		<stop  offset="1" style="stop-color:#090709"/>
	</linearGradient>
	<path class="st4" d="M38.9,393.2c9,0.4,18,1.4,26.9,0.2c8.9-1.2,17.9-5.1,22.9-12.6c4.7-7,5.2-16,6.6-24.3
		c1.4-8.4,4.6-17.4,12.1-21.3c7.8-3.9,17.5-0.9,25.7-3.9c12.6-4.6,16-22.6,8.7-33.8c-7.4-11.2-21.8-15.8-35.2-15.2
		c-13.4,0.5-26.1,5.3-38.9,9.1c-12.8,3.8-26.5,6.8-39.5,3.7c-14.6-3.5-26.4-14.1-40-20.4v124C4.6,394.5,21.8,392.6,38.9,393.2z"/>
	<linearGradient id="SVGID_7_" gradientUnits="userSpaceOnUse" x1="460.6044" y1="301.5911" x2="457.0043" y2="544.5919">
		<stop  offset="0" style="stop-color:#1F1E1E"/>
		<stop  offset="1" style="stop-color:#090709"/>
	</linearGradient>
	<path class="st5" d="M697.5,391c-9.4-18-10.1-39.3-16.7-58.6s-23.6-38.3-43.7-35.3c-16.1,2.4-26.9,17.6-33.7,32.4
		c-6.8,14.8-12.2,31.2-24.8,41.4c-17.2,13.8-42.5,11.6-62.9,3.4c-20.5-8.2-38.7-21.4-59.6-28.4c-20.9-7-46.9-6.1-61.5,10.4
		c-5.4,6.1-8.7,13.7-13.5,20.2c-14.9,20.1-42.2,26.8-67.2,26.9c-25,0.1-50.1-4.9-75-2c-23.1,2.6-44.7,12.9-62.4,27.9v21.8h564
		c-2.4-6.5-5.9-12.7-10-18.2C719.9,418.6,705.7,406.8,697.5,391z"/>
	<g class="st1">
		<linearGradient id="SVGID_8_" gradientUnits="userSpaceOnUse" x1="202.6614" y1="171.7753" x2="124.825" y2="-82.8159">
			<stop  offset="0" style="stop-color:#1F1E1E"/>
			<stop  offset="1" style="stop-color:#090709"/>
		</linearGradient>
		<path class="st6" d="M-21.9,190.6c0,4.6,4,8.4,8.3,9.8c4.4,1.4,9.1,0.9,13.6,0.4c22.8-2.5,45.7-4.9,68.5-7.4
			c21.9-2.4,46.7-6.5,58.5-25.1c7.9-12.5,7.6-28.3,8.5-43.1c0.8-14.8,4-31.1,16-39.8c13-9.4,31.6-5.9,45.3,2.5
			c13.7,8.4,24.4,20.8,37.3,30.3c30.4,22.3,73.3,26.3,107.3,9.9c10.8-5.2,21-12.6,27.1-23c8.5-14.5,7.9-32.6,4.1-48.9
			c-3.8-16.3-10.4-32-13.3-48.5s-1.5-35,9.3-47.9L-33-34.6L-21.9,190.6z"/>
	</g>
	<linearGradient id="SVGID_9_" gradientUnits="userSpaceOnUse" x1="208.4446" y1="116.1993" x2="140.9444" y2="-37.1222">
		<stop  offset="0" style="stop-color:#1F1E1E"/>
		<stop  offset="1" style="stop-color:#090709"/>
	</linearGradient>
	<path class="st7" d="M113.4,148.7c20.3-20.6,34.7-49,61.6-59.8c25.6-10.2,54.2-1,80.8,6.4c26.5,7.4,57.6,12.1,79.4-4.7
		c22-17,25.1-48.4,37.9-73.1c4.8-9.2,11.1-17.4,18.6-24.4H0.5V183C40.7,190.2,84.6,177.9,113.4,148.7z"/>
	<g class="st1">
		<linearGradient id="SVGID_10_" gradientUnits="userSpaceOnUse" x1="140.5354" y1="120.0297" x2="92.3212" y2="-68.9705">
			<stop  offset="0" style="stop-color:#1F1E1E"/>
			<stop  offset="1" style="stop-color:#090709"/>
		</linearGradient>
		<path class="st8" d="M301.5-46.5c-19.7,0.5-30.8,23.1-33.2,42.6c-2.4,19.5-1.1,41.2-13.4,56.5c-11.5,14.3-31.8,18.5-50,16.4
			c-18.2-2-35.3-9.2-53.1-13.8c-17.7-4.6-37.3-6.4-53.7,1.8c-15.9,8-26,24.2-33.1,40.5c-7.1,16.3-12.2,33.7-21.9,48.6
			c-18.9,28.9-55.6,44.9-89.6,39.1L-57.4-41.8L301.5-46.5z"/>
	</g>
	<g class="st1">
		<linearGradient id="SVGID_11_" gradientUnits="userSpaceOnUse" x1="652.5423" y1="167.876" x2="1059.7987" y2="247.0386">
			<stop  offset="0" style="stop-color:#1F1E1E"/>
			<stop  offset="1" style="stop-color:#090709"/>
		</linearGradient>
		<path class="st9" d="M740.6-17.4c-4.4,26.2-19.6,50.5-41.3,65.9c-11.8,8.4-26.8,16.1-29.4,30.4c-2.4,12.8,7,25.1,18,32
			c11,6.9,23.9,10.4,35.1,17c24.8,14.5,39.2,45.1,34.5,73.5c-2.5,14.9-9.6,29.8-5.7,44.4c5.4,20.2,28.3,28.9,46.4,39.5
			c29.8,17.6,51.6,48.2,58.5,82.1c6.9,33.9-1.1,70.6-21.6,98.5l183.4-6l-4.5-484.2L740.6-17.4z"/>
	</g>
	<linearGradient id="SVGID_12_" gradientUnits="userSpaceOnUse" x1="765.2391" y1="218.023" x2="1021.0963" y2="225.7373">
		<stop  offset="0" style="stop-color:#1F1E1E"/>
		<stop  offset="1" style="stop-color:#090709"/>
	</linearGradient>
	<path class="st10" d="M1007-7H711c11.6,31.1,14.5,65.4,7.6,97.9c-2.5,11.8-6.2,24.1-2.8,35.7c6.3,21,32.5,28.5,54.4,27.5
		s44.6-7,65.2,0.6c25.8,9.6,40.1,39,39.9,66.5c-0.2,27.5-12.1,53.6-25,77.9c-7.4,13.9-15.4,27.7-18.9,43.1
		c-3.6,15.3-2.1,32.7,7.9,44.8c11.9,14.5,32.3,18.1,48.7,27.1c16,8.8,27.9,23.9,34.3,40.9h84.8V-7z"/>
	<g class="st1">
		<linearGradient id="SVGID_13_" gradientUnits="userSpaceOnUse" x1="811.9919" y1="237.2934" x2="1084.6371" y2="306.1294">
			<stop  offset="0" style="stop-color:#1F1E1E"/>
			<stop  offset="1" style="stop-color:#090709"/>
		</linearGradient>
		<path class="st11" d="M875,548.4c-17.4-45.9-13.2-99.4,11-142c14.6-25.7,36.3-48.2,43.4-76.9c9-36.3-10.5-77.7-44.3-93.9
			c-12.6-6-26.5-8.8-39.3-14.3c-12.8-5.6-25.1-15-28.7-28.5c-3.2-12.2,1.5-25.3,8.5-35.8c7-10.5,16.4-19.3,23.9-29.4
			c27.8-37.2,27.9-92.7,0.3-130.1l-2.1-3.1l155.5-4v550.3L875,548.4z"/>
	</g>
	<g class="st1">
		<linearGradient id="SVGID_14_" gradientUnits="userSpaceOnUse" x1="501.5724" y1="312.0793" x2="555.5776" y2="500.4231">
			<stop  offset="0" style="stop-color:#1F1E1E"/>
			<stop  offset="1" style="stop-color:#090709"/>
		</linearGradient>
		<path class="st12" d="M293.9,439.6c35.9,12.2,78.7,0.6,103.4-28.2c14.6-16.9,22.8-38.4,35.7-56.6c13-18.2,34-33.8,56-29.9
			c29.6,5.3,42.1,40.7,65.8,59.3c20.2,16,48.1,18.8,73.7,15.9c25.6-2.8,50.5-10.6,76.2-13.3c22.4-2.4,46.7-0.3,64.5,13.6
			c16.6,13,24.8,35.8,20.4,56.3l-498.1,5.2l2-23.4"/>
	</g>
</g>
</svg>
